<svg xmlns="http://www.w3.org/2000/svg" xmlns:xlink="http://www.w3.org/1999/xlink" width="250" zoomAndPan="magnify" viewBox="0 0 187.5 187.499992" height="250" preserveAspectRatio="xMidYMid meet" version="1.0"><path fill="#000000" d="M 118.214844 66.339844 L 71.4375 66.339844 C 69.46875 66.339844 67.847656 67.960938 67.847656 69.929688 L 67.847656 116.710938 C 67.847656 118.679688 69.46875 120.300781 71.4375 120.300781 L 118.214844 120.300781 C 120.183594 120.300781 121.804688 118.679688 121.804688 116.710938 L 121.804688 69.929688 C 121.804688 67.960938 120.183594 66.339844 118.214844 66.339844 Z M 118.214844 66.339844 " fill-opacity="1" fill-rule="nonzero"/><path fill="#000000" d="M 64.140625 12.382812 L 17.363281 12.382812 C 15.394531 12.382812 13.773438 14.003906 13.773438 15.972656 L 13.773438 62.753906 C 13.773438 64.71875 15.394531 66.339844 17.363281 66.339844 L 64.140625 66.339844 C 66.109375 66.339844 67.730469 64.71875 67.730469 62.753906 L 67.730469 15.972656 C 67.730469 14.003906 66.109375 12.382812 64.140625 12.382812 Z M 64.140625 12.382812 " fill-opacity="1" fill-rule="nonzero"/><path fill="#000000" d="M 172.289062 12.382812 L 125.511719 12.382812 C 123.542969 12.382812 121.921875 14.003906 121.921875 15.972656 L 121.921875 62.753906 C 121.921875 64.71875 123.542969 66.339844 125.511719 66.339844 L 172.289062 66.339844 C 174.257812 66.339844 175.878906 64.71875 175.878906 62.753906 L 175.878906 15.972656 C 175.878906 14.003906 174.257812 12.382812 172.289062 12.382812 Z M 172.289062 12.382812 " fill-opacity="1" fill-rule="nonzero"/><path fill="#000000" d="M 64.140625 120.417969 L 17.363281 120.417969 C 15.394531 120.417969 13.773438 122.039062 13.773438 124.003906 L 13.773438 170.785156 C 13.773438 172.753906 15.394531 174.375 17.363281 174.375 L 64.140625 174.375 C 66.109375 174.375 67.730469 172.753906 67.730469 170.785156 L 67.730469 124.003906 C 67.730469 122.039062 66.109375 120.417969 64.140625 120.417969 Z M 64.140625 120.417969 " fill-opacity="1" fill-rule="nonzero"/><path fill="#000000" d="M 172.289062 120.417969 L 125.511719 120.417969 C 123.542969 120.417969 121.921875 122.039062 121.921875 124.003906 L 121.921875 170.785156 C 121.921875 172.753906 123.542969 174.375 125.511719 174.375 L 172.289062 174.375 C 174.257812 174.375 175.878906 172.753906 175.878906 170.785156 L 175.878906 124.003906 C 175.878906 122.039062 174.257812 120.417969 172.289062 120.417969 Z M 172.289062 120.417969 " fill-opacity="1" fill-rule="nonzero"/></svg>