<svg xmlns="http://www.w3.org/2000/svg" xmlns:xlink="http://www.w3.org/1999/xlink" width="250" zoomAndPan="magnify" viewBox="0 0 187.5 187.499992" height="250" preserveAspectRatio="xMidYMid meet" version="1.0"><path fill="#ab9ff2" d="M 76.070312 130.75 C 66.238281 145.820312 49.757812 164.886719 27.832031 164.886719 C 17.46875 164.886719 7.5 160.621094 7.5 142.085938 C 7.5 94.878906 71.953125 21.800781 131.753906 21.800781 C 165.773438 21.800781 179.328125 45.40625 179.328125 72.207031 C 179.328125 106.613281 157.003906 145.953125 134.808594 145.953125 C 127.765625 145.953125 124.3125 142.085938 124.3125 135.949219 C 124.3125 134.351562 124.578125 132.617188 125.109375 130.75 C 117.535156 143.683594 102.914062 155.6875 89.226562 155.6875 C 79.261719 155.6875 74.210938 149.417969 74.210938 140.617188 C 74.210938 137.417969 74.875 134.085938 76.070312 130.75 Z M 127.585938 71.277344 C 127.585938 79.089844 122.976562 82.996094 117.820312 82.996094 C 112.589844 82.996094 108.058594 79.089844 108.058594 71.277344 C 108.058594 63.46875 112.589844 59.5625 117.820312 59.5625 C 122.976562 59.5625 127.585938 63.46875 127.585938 71.277344 Z M 156.871094 71.28125 C 156.871094 79.089844 152.261719 82.996094 147.109375 82.996094 C 141.875 82.996094 137.34375 79.089844 137.34375 71.28125 C 137.34375 63.46875 141.875 59.5625 147.109375 59.5625 C 152.261719 59.5625 156.871094 63.46875 156.871094 71.28125 Z M 156.871094 71.28125 " fill-opacity="1" fill-rule="evenodd"/></svg>
