<!DOCTYPE svg PUBLIC "-//W3C//DTD SVG 1.1//EN" "http://www.w3.org/Graphics/SVG/1.1/DTD/svg11.dtd">
<!-- Uploaded to: SVG Repo, www.svgrepo.com, Transformed by: SVG Repo Mixer Tools -->
<svg fill="#7385a5" height="256px" width="256px" version="1.1" id="Layer_1" xmlns="http://www.w3.org/2000/svg" xmlns:xlink="http://www.w3.org/1999/xlink" viewBox="0 0 510.596 510.596" xml:space="preserve">
<g id="SVGRepo_bgCarrier" stroke-width="0"/>
<g id="SVGRepo_tracerCarrier" stroke-linecap="round" stroke-linejoin="round"/>
<g id="SVGRepo_iconCarrier"> <g transform="translate(0 -1)"> <g> <g> <circle cx="335.448" cy="472.579" r="8.828"/> <circle cx="26.483" cy="269.545" r="8.828"/> <circle cx="282.483" cy="40.028" r="8.828"/> <circle cx="476.69" cy="225.407" r="8.828"/> <path d="M97.103,446.096H83.103l-21.31-21.31v-14.001c0-4.873-3.955-8.828-8.828-8.828s-8.828,3.955-8.828,8.828v14.001 l-21.31,21.31H8.828c-4.873,0-8.828,3.955-8.828,8.828c0,4.873,3.955,8.828,8.828,8.828h14.001l21.31,21.31v14.001 c0,4.873,3.955,8.828,8.828,8.828s8.828-3.955,8.828-8.828v-14.001l21.31-21.31h14.001c4.873,0,8.828-3.955,8.828-8.828 C105.931,450.051,101.976,446.096,97.103,446.096z M52.966,468.924l-14.001-14.001l14.001-14.001l14.001,14.001L52.966,468.924z"/> <path d="M509.801,396.907l-31.188-68.626l-0.009-0.009l-0.018-0.035c-0.071-0.168-0.203-0.309-0.291-0.477 c-0.238-0.459-0.486-0.909-0.803-1.315c-0.221-0.282-0.494-0.503-0.742-0.75c-0.247-0.247-0.468-0.521-0.75-0.742 c-0.406-0.318-0.856-0.565-1.315-0.803c-0.168-0.088-0.309-0.212-0.477-0.291l-0.026-0.018h-0.009l-65.615-29.828l-27.321-60.098 c10.823-10.964,13.621-26.854,8.492-40.422c5.985,1.262,12.138,1.96,18.406,1.96c23.578,0,45.753-9.181,62.42-25.856 c3.452-3.452,3.452-9.031,0-12.482l-49.938-49.938l19.615-19.615c5.5,3.231,11.644,4.979,17.841,4.979 c9.039,0,18.088-3.452,24.964-10.328c13.771-13.771,13.771-36.175,0-49.938c-13.33-13.339-36.59-13.347-49.929,0 c-11.599,11.599-13.303,29.272-5.358,42.805l-19.615,19.615l-49.938-49.938c-3.443-3.452-9.031-3.452-12.482,0 c-16.675,16.675-25.856,38.841-25.856,62.42c0,6.268,0.697,12.42,1.96,18.414c-13.559-5.129-29.449-2.339-40.413,8.483 l-60.107-27.321l-29.82-65.598c0-0.009-0.009-0.018-0.009-0.026l-0.009-0.026c-0.088-0.194-0.229-0.353-0.335-0.539 c-0.229-0.433-0.459-0.865-0.759-1.253c-0.247-0.318-0.556-0.574-0.847-0.847c-0.221-0.212-0.406-0.45-0.644-0.644 c-0.424-0.335-0.909-0.591-1.386-0.847c-0.15-0.071-0.265-0.185-0.415-0.247l-0.018-0.009c0,0-0.018-0.009-0.026-0.018 L118.412,5.509c-3.354-1.545-7.3-0.812-9.896,1.792L27.373,88.453c-2.048,2.048-2.966,4.961-2.445,7.812 c0.512,2.851,2.392,5.261,5.032,6.462l65.651,29.837l29.82,65.607c0,0,0,0.009,0.009,0.018l0.009,0.026 c0.097,0.212,0.247,0.38,0.353,0.583c0.23,0.415,0.45,0.839,0.742,1.209c0.247,0.318,0.556,0.574,0.847,0.856 c0.221,0.212,0.406,0.45,0.636,0.636c0.424,0.327,0.883,0.574,1.351,0.821c0.159,0.088,0.291,0.203,0.459,0.274l0.018,0.018 h0.018l57.026,25.927l-1.395,1.404c-8.783,8.783-12.253,20.798-10.69,32.247l-55.543,11.114c-3.196,0.636-5.773,2.984-6.718,6.1 c-0.945,3.107-0.097,6.488,2.207,8.792l24.973,24.964l18.723-18.723c3.443-3.443,9.031-3.443,12.482,0 c3.443,3.452,3.443,9.039,0,12.482l-18.723,18.723l12.482,12.491l18.723-18.723c3.452-3.452,9.039-3.452,12.482,0 c3.452,3.443,3.452,9.031,0,12.482l-18.723,18.723l12.482,12.482l18.732-18.723c3.443-3.452,9.031-3.452,12.482,0 c3.443,3.452,3.443,9.031,0,12.482l-18.732,18.723l24.973,24.973c1.686,1.677,3.937,2.587,6.241,2.587 c0.856,0,1.713-0.132,2.56-0.38c3.116-0.945,5.455-3.531,6.1-6.718l11.105-55.543c1.721,0.238,3.434,0.512,5.208,0.512 c10.214,0,19.818-3.981,27.048-11.202l1.395-1.395l25.918,57.017c0.009,0.009,0.009,0.018,0.009,0.018l0.009,0.026 c0.088,0.185,0.221,0.335,0.318,0.512c0.238,0.45,0.477,0.892,0.786,1.289c0.212,0.274,0.486,0.494,0.742,0.742 c0.247,0.256,0.468,0.53,0.742,0.742c0.397,0.309,0.847,0.547,1.289,0.786c0.177,0.097,0.327,0.23,0.512,0.318l0.026,0.009 c0,0,0.009,0.009,0.018,0.009l65.607,29.82l29.837,65.651c1.201,2.639,3.619,4.52,6.462,5.032c0.521,0.097,1.051,0.15,1.58,0.15 c2.313,0,4.573-0.918,6.241-2.586l81.143-81.152C510.613,404.19,511.328,400.252,509.801,396.907z M100.36,115.333l-51.5-23.411 l67.814-67.805l51.5,23.402L100.36,115.333z M148.735,191.798l67.814-67.813l51.491,23.411l-67.813,67.813L148.735,191.798z M283.294,306.918c-0.009,0.009-0.009,0.018-0.009,0.018l-10.39,10.39c-7.795,7.777-21.363,7.777-29.131,0l-22.89-22.89 l-22.908-22.908c-8.015-8.033-8.007-21.08,0.018-29.105l95.717-95.718c4.017-4.008,9.287-6.02,14.557-6.02 c5.279,0,10.549,2.013,14.566,6.02l45.78,45.78c8.033,8.033,8.033,21.098,0,29.131l-4.14,4.14c0,0-0.018,0.009-0.026,0.018 L283.294,306.918z M323.513,366.575l-23.411-51.491l67.813-67.813l23.411,51.491L323.513,366.575z M423.388,466.45 l-23.411-51.491l67.814-67.822l23.411,51.5L423.388,466.45z"/> <path d="M314.507,163.356c-3.452-3.452-9.039-3.452-12.482,0l-87.393,87.384c-3.443,3.452-3.443,9.039,0,12.482l37.455,37.455 c1.721,1.721,3.981,2.586,6.241,2.586c2.26,0,4.52-0.865,6.241-2.586l87.384-87.384c3.452-3.452,3.452-9.039,0-12.482 L314.507,163.356z M258.328,281.955l-24.973-24.973l31.214-31.206l24.973,24.964L258.328,281.955z M302.024,238.258 l-24.973-24.964l31.214-31.214l24.964,24.973L302.024,238.258z"/> </g> </g> </g> </g>
</svg>