<svg width="60" height="24" viewBox="0 0 60 24" xmlns="http://www.w3.org/2000/svg">
  <rect x="0" y="10" width="15" height="4" fill="#00ffcc" />
  <rect x="45" y="10" width="15" height="4" fill="#00ffcc" />
  <path d="M20,2 L40,2 C45.5,2 50,6.5 50,12 C50,17.5 45.5,22 40,22 L20,22 C14.5,22 10,17.5 10,12 C10,6.5 14.5,2 20,2 Z
           M20,7 C17.2,7 15,9.2 15,12 C15,14.8 17.2,17 20,17 L40,17 C42.8,17 45,14.8 45,12 C45,9.2 42.8,7 40,7 L20,7 Z" 
        fill="#00ffcc" fill-rule="evenodd" />
</svg>
